<?xml version="1.0" standalone="no"?><!DOCTYPE svg PUBLIC "-//W3C//DTD SVG 1.1//EN" "http://www.w3.org/Graphics/SVG/1.1/DTD/svg11.dtd"><svg class="icon" width="200px" height="200.00px" viewBox="0 0 1024 1024" version="1.1" xmlns="http://www.w3.org/2000/svg"><path d="M702.142693 136.67106L639.99912 198.814633v-39.999725c0-26.079821-12.447914-48.511666-37.503742-67.007539C577.50355 73.311496 547.359757 63.99956 512 63.99956s-65.50355 9.311936-90.495378 27.807809C396.480794 110.303242 384.00088 132.735087 384.00088 158.814908v295.997965l-63.99956 63.99956V159.9989c0-44.127697 18.751871-81.855437 56.223613-113.055223C413.760675 15.615893 458.976365 0 511.968 0s98.207325 15.583893 135.743067 46.943677c30.687789 25.535824 48.831664 55.487619 54.399626 89.727383zM703.99868 406.333206V543.99626c0 44.127697-18.783871 81.855437-56.255613 113.055223C610.207325 688.379267 564.991636 703.99516 512 703.99516c-32.287778 0-61.695576-5.79196-88.223393-17.40788l50.559652-50.559653c11.839919 2.623982 24.383832 3.935973 37.695741 3.935973 35.359757 0 65.50355-9.311936 90.495378-27.807809 25.055828-18.495873 37.503742-40.76772 37.503742-67.007539v-74.847485l63.99956-63.99956zM309.473392 800.890494l55.39162-55.391619a246.398306 246.398306 0 0 0 25.471824 16.607886l1.247992 0.639995c36.735747 20.479859 76.895471 30.847788 120.447172 30.847788s83.711424-10.23993 120.479171-30.847788c36.767747-20.607858 65.855547-48.511666 87.3274-83.839423s32.191779-73.855492 32.191779-115.711205v-140.799032c0-10.623927 3.903973-19.583865 11.711919-27.135813 7.839946-7.551948 17.247881-11.263923 28.287806-11.263923s20.447859 3.711974 28.255806 11.263923c7.839946 7.551948 11.743919 16.511886 11.743919 27.135813v140.799032c0 38.399736-7.23195 75.391482-21.695851 110.847238s-34.143765 66.559542-59.071594 93.311358c-24.895829 26.751816-54.591625 49.023663-89.055388 66.94354s-71.199511 29.0558-110.143242 33.791768V947.193488h55.999615c11.039924 0 20.479859 3.711974 28.255805 11.263923 7.839946 7.551948 11.743919 16.511886 11.74392 27.135813s-3.903973 19.711864-11.74392 27.135813a39.103731 39.103731 0 0 1-28.255805 11.263923h-191.99868a39.359729 39.359729 0 0 1-28.319806-11.263923c-7.775947-7.423949-11.711919-16.511886-11.711919-27.135813s3.935973-19.583865 11.711919-27.135813c7.839946-7.551948 17.247881-11.263923 28.319806-11.263923h55.999615v-79.103456a320.509796 320.509796 0 0 1-110.143243-33.791768 341.213654 341.213654 0 0 1-52.38364-33.40777z m-107.999257-163.550876A291.677995 291.677995 0 0 1 192.0022 563.196128v-140.799032c0-10.623927 3.903973-19.583865 11.711919-27.135813 7.839946-7.551948 17.247881-11.263923 28.287806-11.263923s20.447859 3.711974 28.319805 11.263923c7.775947 7.551948 11.711919 16.511886 11.71192 27.135813v140.799032l0.032 3.583975-70.591515 70.591515z m671.899381-550.716214a31.99978 31.99978 0 0 1 0 45.247689L194.562182 810.682427a31.99978 31.99978 0 0 1-45.247689-45.247689L828.125827 86.623404a31.99978 31.99978 0 0 1 45.247689 0z" fill="#5b71b4" /></svg>