<?xml version="1.0" standalone="no"?><!DOCTYPE svg PUBLIC "-//W3C//DTD SVG 1.1//EN" "http://www.w3.org/Graphics/SVG/1.1/DTD/svg11.dtd"><svg class="icon" width="200px" height="200.00px" viewBox="0 0 1024 1024" version="1.1" xmlns="http://www.w3.org/2000/svg"><path d="M421.505216 91.806766C396.481552 110.302518 384.00172 132.734216 384.00172 158.813866v386.362808c0 26.239647 12.479832 48.511348 37.503496 67.0071 24.991664 18.495751 55.135259 27.807626 90.494784 27.807626s65.50312-9.311875 90.494784-27.807626c25.055663-18.495751 37.503496-40.767452 37.503496-67.0071V158.813866c0-26.07965-12.479832-48.511348-37.503496-67.0071C577.50312 73.311015 547.359525 63.99914 512 63.99914s-65.50312 9.311875-90.494784 27.807626z m226.23696-44.863397C685.213672 78.14295 703.99742 115.870443 703.99742 159.99785v383.99484c0 44.127407-18.783748 81.8549-56.255244 113.054481C610.20668 688.37475 564.991288 703.99054 512 703.99054s-98.20668-15.61579-135.742176-46.943369c-37.471496-31.199581-56.223245-68.927074-56.223244-113.054481V159.99785c0-44.127407 18.751748-81.8549 56.223244-113.054481C413.79332 15.61579 459.008712 0 512 0s98.20668 15.583791 135.742176 46.943369z m172.509682 348.31532c7.839895 7.551899 11.743842 16.511778 11.743842 27.135635v140.798108c0 38.399484-7.231903 75.390987-21.695708 110.846511s-34.143541 66.559106-59.071207 93.310746c-24.895665 26.751641-54.591266 49.023341-89.054803 66.9431s-71.199043 29.05561-110.14252 33.791546V947.187272h55.999248c11.039852 0 20.479725 3.71195 28.25562 11.263849 7.839895 7.551899 11.743842 16.511778 11.743842 27.135635s-3.903948 19.711735-11.743842 27.135636a39.103475 39.103475 0 0 1-28.25562 11.263848h-191.99742a39.359471 39.359471 0 0 1-28.31962-11.263848c-7.775896-7.4239-11.711843-16.511778-11.711843-27.135636s3.935947-19.583737 11.711843-27.135635c7.839895-7.551899 17.247768-11.263849 28.31962-11.263849h55.999247v-79.102937c-38.943477-4.735936-75.678983-15.871787-110.14252-33.791546s-64.159138-40.19146-89.054803-66.9431c-24.895665-26.751641-44.575401-57.855223-59.071206-93.310746S192.0363 601.591916 192.0363 563.192432v-140.798108c0-10.623857 3.903948-19.583737 11.711842-27.135635 7.839895-7.551899 17.247768-11.263849 28.28762-11.263849s20.447725 3.71195 28.319619 11.263849c7.775896 7.551899 11.711843 16.511778 11.711843 27.135635v140.798108c0 41.855438 10.719856 80.38292 32.191568 115.710445s50.559321 63.23115 87.326826 83.838874c36.735506 20.479725 76.894967 30.847585 120.446382 30.847585s83.710875-10.239862 120.478381-30.847585c36.767506-20.607723 65.855115-48.511348 87.326826-83.838874s32.191567-73.855008 32.191568-115.710445v-140.798108c0-10.623857 3.903948-19.583737 11.711842-27.135635 7.839895-7.551899 17.247768-11.263849 28.28762-11.263849s20.447725 3.71195 28.25562 11.263849z" fill="#5b71b4" /></svg>